<?xml version="1.0" standalone="no"?>
<!DOCTYPE svg PUBLIC "-//W3C//DTD SVG 20010904//EN"
 "http://www.w3.org/TR/2001/REC-SVG-20010904/DTD/svg10.dtd">
<svg version="1.0" xmlns="http://www.w3.org/2000/svg"
 width="2608.000000pt" height="2608.000000pt" viewBox="0 0 2608.000000 2608.000000"
 preserveAspectRatio="xMidYMid meet">
<metadata>
Created by potrace 1.11, written by Peter Selinger 2001-2013
</metadata>
<g transform="translate(0.000000,2608.000000) scale(0.100000,-0.100000)"
fill="#000000" stroke="none">
<path d="M13017 26004 c-1 -2 -57 -6 -123 -9 -159 -7 -317 -22 -399 -39 -11
-2 -40 -7 -65 -12 -25 -4 -47 -8 -50 -9 -3 -1 -18 -4 -35 -8 -16 -4 -39 -9
-50 -11 -54 -12 -161 -38 -198 -50 -23 -7 -76 -24 -117 -36 -41 -12 -86 -27
-100 -33 -14 -5 -29 -11 -35 -12 -15 -4 -203 -80 -270 -110 -91 -41 -361 -177
-380 -192 -19 -15 -90 -54 -107 -60 -10 -3 -18 -9 -18 -14 0 -5 -5 -9 -10 -9
-10 0 -261 -162 -287 -185 -6 -5 -28 -21 -48 -35 -70 -48 -155 -120 -166 -143
-7 -12 -15 -24 -18 -27 -8 -7 -46 -74 -43 -77 1 -2 2 -4 1 -5 -14 -48 -19
-192 -8 -225 6 -16 4 -25 -9 -32 -12 -7 -13 -10 -3 -11 10 0 11 -3 3 -13 -7
-8 -7 -18 -2 -27 5 -8 6 -18 3 -24 -9 -13 -9 -66 -1 -66 4 0 3 -13 -2 -29 -4
-15 -4 -34 1 -42 4 -7 4 -19 -2 -25 -7 -8 -6 -14 1 -19 6 -4 7 -12 1 -24 -6
-10 -6 -23 -1 -31 5 -8 5 -21 0 -30 -5 -9 -5 -22 0 -30 5 -9 5 -19 -1 -26 -7
-8 -6 -14 1 -19 6 -4 7 -12 1 -24 -6 -10 -6 -23 -1 -31 5 -8 5 -21 0 -30 -5
-9 -5 -22 0 -30 5 -8 6 -18 3 -24 -8 -12 -10 -66 -3 -66 7 0 4 -66 -5 -79 -3
-6 -1 -11 5 -11 6 0 8 -5 5 -11 -10 -15 -12 -79 -3 -79 3 0 3 -13 -2 -30 -5
-16 -6 -30 -2 -30 4 0 7 -16 7 -35 0 -19 -3 -35 -7 -35 -4 0 -3 -11 2 -24 6
-17 5 -26 -2 -28 -8 -3 -8 -10 0 -25 6 -11 8 -23 5 -27 -8 -8 -10 -66 -2 -66
3 0 3 -22 -1 -50 -4 -27 -3 -50 2 -50 5 0 4 -9 -2 -19 -7 -13 -7 -22 0 -26 7
-4 7 -12 0 -25 -6 -11 -6 -21 -1 -25 6 -3 6 -17 1 -35 -5 -19 -5 -30 1 -30 6
0 6 -7 -1 -19 -7 -13 -7 -22 0 -26 7 -4 7 -13 0 -24 -6 -12 -5 -22 2 -29 9 -9
9 -12 0 -12 -9 0 -10 -5 -3 -19 6 -10 7 -21 4 -25 -8 -7 -10 -66 -3 -66 7 0 4
-66 -5 -79 -3 -6 -1 -11 5 -11 6 0 8 -5 5 -11 -10 -15 -12 -79 -3 -79 3 0 3
-13 -2 -30 -5 -16 -6 -30 -2 -30 4 0 7 -16 7 -35 0 -19 -3 -35 -7 -35 -4 0 -3
-11 2 -24 6 -17 5 -26 -2 -28 -8 -3 -8 -10 0 -25 6 -11 8 -23 5 -27 -8 -8 -10
-66 -2 -66 3 0 3 -22 -1 -50 -4 -27 -3 -50 2 -50 5 0 4 -9 -2 -19 -7 -13 -7
-22 0 -26 7 -4 7 -12 0 -25 -6 -11 -6 -21 -1 -25 6 -3 6 -17 1 -35 -5 -19 -5
-30 1 -30 6 0 6 -7 -1 -19 -7 -13 -7 -22 0 -26 7 -4 7 -13 0 -24 -6 -12 -5
-22 2 -29 9 -9 9 -12 0 -12 -9 0 -10 -5 -3 -19 6 -10 7 -21 4 -25 -8 -7 -10
-66 -3 -66 7 0 4 -66 -5 -79 -3 -6 -1 -11 5 -11 6 0 8 -5 5 -11 -10 -15 -12
-79 -3 -79 3 0 3 -13 -2 -30 -5 -16 -6 -30 -2 -30 4 0 7 -16 7 -35 0 -19 -3
-35 -7 -35 -4 0 -3 -11 2 -24 6 -17 5 -26 -2 -28 -8 -3 -8 -10 0 -25 6 -11 8
-23 5 -27 -8 -8 -10 -66 -2 -66 3 0 3 -22 -1 -50 -4 -27 -3 -50 2 -50 5 0 4
-9 -2 -19 -7 -13 -7 -22 0 -26 7 -4 7 -12 0 -25 -6 -11 -6 -21 -1 -25 6 -3 6
-17 1 -35 -5 -19 -5 -30 1 -30 6 0 6 -7 -1 -19 -7 -13 -7 -22 0 -26 7 -4 7
-13 0 -24 -6 -12 -5 -22 2 -29 9 -9 9 -12 0 -12 -9 0 -10 -5 -3 -19 6 -10 7
-21 4 -25 -8 -7 -10 -66 -3 -66 7 0 4 -66 -5 -79 -3 -6 -1 -11 5 -11 6 0 8 -5
5 -11 -10 -15 -12 -79 -3 -79 3 0 3 -13 -2 -30 -5 -16 -6 -30 -2 -30 4 0 7
-16 7 -35 0 -19 -3 -35 -7 -35 -4 0 -3 -11 2 -24 6 -17 5 -26 -2 -28 -8 -3 -8
-10 0 -25 6 -11 8 -23 5 -27 -8 -8 -10 -66 -2 -66 3 0 3 -22 -1 -50 -4 -27 -3
-50 2 -50 5 0 4 -9 -2 -19 -7 -13 -7 -22 0 -26 7 -4 7 -12 0 -25 -6 -11 -6
-21 -1 -25 6 -3 6 -17 1 -35 -5 -19 -5 -30 1 -30 6 0 6 -7 -1 -19 -7 -13 -7
-22 0 -26 7 -4 7 -13 0 -24 -6 -12 -5 -22 2 -29 9 -9 9 -12 0 -12 -9 0 -10 -5
-3 -19 6 -10 7 -21 4 -25 -8 -7 -10 -66 -3 -66 7 0 4 -66 -5 -79 -3 -6 -1 -11
5 -11 6 0 8 -5 5 -11 -10 -15 -12 -79 -3 -79 3 0 3 -13 -2 -30 -5 -16 -6 -30
-2 -30 4 0 7 -16 7 -35 0 -19 -3 -35 -7 -35 -4 0 -3 -11 2 -24 6 -17 5 -26 -2
-28 -8 -3 -8 -10 0 -25 6 -11 8 -23 5 -27 -8 -8 -10 -66 -2 -66 3 0 3 -22 -1
-50 -4 -27 -3 -50 2 -50 5 0 4 -9 -2 -19 -7 -13 -7 -22 0 -26 7 -4 7 -12 0
-25 -6 -11 -6 -21 -1 -25 6 -3 6 -17 1 -35 -5 -19 -5 -30 1 -30 6 0 6 -7 -1
-19 -7 -13 -7 -22 0 -26 7 -4 7 -13 0 -24 -6 -12 -5 -22 2 -29 9 -9 9 -12 0
-12 -9 0 -10 -5 -3 -19 6 -10 7 -21 4 -25 -8 -7 -10 -66 -3 -66 7 0 4 -66 -5
-79 -3 -6 -1 -11 5 -11 6 0 8 -5 5 -11 -10 -15 -12 -79 -3 -79 3 0 3 -13 -2
-30 -5 -16 -6 -30 -2 -30 4 0 7 -16 7 -35 0 -19 -3 -35 -7 -35 -4 0 -3 -11 2
-24 6 -17 5 -26 -2 -28 -8 -3 -8 -10 0 -25 6 -11 8 -23 5 -27 -8 -8 -10 -66
-2 -66 3 0 3 -22 -1 -50 -4 -27 -3 -50 2 -50 5 0 4 -9 -2 -19 -7 -13 -7 -22 0
-26 7 -4 7 -12 0 -25 -6 -11 -6 -21 -1 -25 6 -3 6 -17 1 -35 -5 -19 -5 -30 1
-30 6 0 6 -7 -1 -19 -7 -13 -7 -22 0 -26 7 -4 7 -13 0 -24 -6 -12 -5 -22 2
-29 9 -9 9 -12 0 -12 -9 0 -10 -5 -3 -19 6 -10 7 -21 4 -25 -8 -7 -10 -66 -3
-66 7 0 4 -66 -5 -79 -3 -6 -1 -11 5 -11 6 0 8 -5 5 -11 -10 -15 -12 -79 -3
-79 3 0 3 -13 -2 -30 -5 -16 -6 -30 -2 -30 4 0 7 -16 7 -35 0 -19 -3 -35 -7
-35 -4 0 -3 -11 2 -24 6 -17 5 -26 -2 -28 -8 -3 -8 -10 0 -25 6 -11 8 -23 5
-27 -8 -8 -10 -66 -2 -66 3 0 3 -22 -1 -50 -4 -27 -3 -50 2 -50 5 0 4 -9 -2
-19 -7 -13 -7 -22 0 -26 7 -4 7 -12 0 -25 -6 -11 -6 -21 -1 -25 6 -3 6 -17 1
-35 -5 -19 -5 -30 1 -30 6 0 6 -7 -1 -19 -7 -13 -7 -22 0 -26 7 -4 7 -13 0
-24 -6 -12 -5 -22 2 -29 9 -9 9 -12 0 -12 -9 0 -10 -5 -3 -19 6 -10 7 -21 4
-25 -8 -7 -10 -66 -3 -66 7 0 4 -66 -5 -79 -3 -6 -1 -11 5 -11 6 0 8 -5 5 -11
-10 -15 -12 -79 -3 -79 3 0 3 -13 -2 -30 -5 -16 -6 -30 -2 -30 4 0 7 -16 7
-35 0 -19 -3 -35 -7 -35 -4 0 -3 -11 2 -24 6 -17 5 -26 -2 -28 -8 -3 -8 -10 0
-25 6 -11 8 -23 5 -27 -8 -8 -10 -66 -2 -66 3 0 3 -22 -1 -50 -4 -27 -3 -50 2
-50 5 0 4 -9 -2 -19 -7 -13 -7 -22 0 -26 7 -4 7 -12 0 -25 -6 -11 -6 -21 -1
-25 6 -3 6 -17 1 -35 -5 -19 -5 -30 1 -30 6 0 6 -7 -1 -19 -7 -13 -7 -22 0
-26 7 -4 7 -13 0 -24 -6 -12 -5 -22 2 -29 9 -9 9 -12 0 -12 -9 0 -10 -5 -3
-19 6 -10 7 -21 4 -25 -8 -7 -10 -66 -3 -66 7 0 4 -66 -5 -79 -3 -6 -1 -11 5
-11 6 0 8 -5 5 -11 -10 -15 -12 -79 -3 -79 3 0 3 -13 -2 -30 -5 -16 -6 -30 -2
-30 4 0 7 -16 7 -35 0 -19 -3 -35 -7 -35 -4 0 -3 -11 2 -24 6 -17 5 -26 -2
-28 -8 -3 -8 -10 0 -25 6 -11 8 -23 5 -27 -9 -8 -10 -66 -1 -66 4 0 3 -13 -2
-29 -4 -15 -4 -34 0 -42 5 -7 6 -17 3 -23 -8 -12 -10 -66 -3 -66 7 0 4 -66 -5
-79 -3 -6 -1 -11 5 -11 6 0 8 -5 5 -11 -10 -15 -12 -79 -3 -79 3 0 3 -13 -2
-30 -5 -16 -6 -30 -2 -30 4 0 7 -16 7 -35 0 -19 -3 -35 -7 -35 -4 0 -3 -11 2
-24 6 -17 5 -26 -2 -28 -8 -3 -8 -10 0 -25 6 -11 8 -23 5 -27 -8 -8 -10 -66
-2 -66 3 0 3 -22 -1 -50 -4 -27 -3 -50 2 -50 5 0 4 -9 -2 -19 -7 -13 -7 -22 0
-26 7 -4 7 -12 0 -25 -6 -11 -6 -21 -1 -25 6 -3 6 -17 1 -35 -5 -19 -5 -30 1
-30 6 0 6 -7 -1 -19 -7 -13 -7 -22 0 -26 7 -4 7 -13 0 -24 -6 -12 -5 -22 2
-29 9 -9 9 -12 0 -12 -9 0 -10 -5 -3 -19 6 -10 7 -21 4 -25 -8 -7 -10 -66 -3
-66 7 0 4 -66 -5 -79 -3 -6 -1 -11 5 -11 6 0 8 -5 5 -11 -10 -15 -12 -79 -3
-79 3 0 3 -13 -2 -30 -5 -16 -6 -30 -2 -30 4 0 7 -16 7 -35 0 -19 -3 -35 -7
-35 -4 0 -3 -11 2 -24 6 -17 5 -26 -2 -28 -8 -3 -8 -10 0 -25 6 -11 8 -23 5
-27 -8 -8 -10 -66 -2 -66 3 0 3 -23 -1 -50 -4 -27 -3 -50 2 -50 5 0 4 -9 -2
-19 -7 -13 -7 -22 0 -26 7 -4 7 -12 0 -25 -6 -11 -6 -21 -1 -25 6 -3 6 -17 1
-35 -5 -19 -5 -30 1 -30 6 0 6 -7 -1 -19 -7 -13 -7 -22 0 -26 7 -4 7 -13 0
-24 -6 -12 -5 -22 2 -29 9 -9 9 -12 0 -12 -9 0 -10 -5 -3 -19 6 -10 7 -21 4
-25 -8 -7 -10 -66 -3 -66 7 0 4 -66 -5 -79 -3 -6 -1 -11 5 -11 6 0 8 -5 5 -11
-10 -15 -12 -79 -3 -79 3 0 3 -13 -2 -30 -5 -16 -6 -30 -2 -30 4 0 7 -16 7
-35 0 -19 -3 -35 -7 -35 -4 0 -3 -11 2 -24 6 -17 5 -26 -2 -28 -8 -3 -8 -10 0
-25 6 -11 8 -23 5 -27 -8 -8 -10 -66 -2 -66 3 0 3 -22 -1 -50 -4 -27 -3 -50 2
-50 5 0 4 -9 -2 -19 -7 -13 -7 -22 0 -26 7 -4 7 -12 0 -25 -6 -11 -6 -21 -1
-25 6 -3 6 -17 1 -35 -5 -19 -5 -30 1 -30 6 0 6 -7 -1 -19 -7 -13 -7 -22 0
-26 7 -4 7 -13 0 -24 -6 -12 -5 -22 2 -29 9 -9 9 -12 0 -12 -9 0 -10 -5 -3
-19 6 -10 7 -21 4 -25 -8 -7 -10 -66 -3 -66 7 0 4 -66 -5 -79 -3 -6 -1 -11 5
-11 6 0 8 -5 5 -11 -10 -15 -12 -79 -3 -79 3 0 3 -13 -2 -30 -5 -16 -6 -30 -2
-30 4 0 7 -16 7 -35 0 -19 -3 -35 -7 -35 -4 0 -3 -11 2 -24 6 -17 5 -26 -2
-28 -8 -3 -8 -10 0 -25 6 -11 8 -23 5 -27 -8 -8 -10 -66 -2 -66 3 0 3 -23 -1
-50 -4 -28 -3 -50 2 -50 5 0 4 -9 -2 -19 -7 -13 -7 -22 0 -26 7 -4 7 -12 0
-25 -6 -11 -6 -21 -1 -25 6 -3 6 -17 1 -35 -5 -19 -5 -30 1 -30 6 0 6 -7 -1
-19 -7 -13 -7 -22 0 -26 7 -4 7 -13 0 -24 -6 -12 -5 -22 2 -29 9 -9 9 -12 0
-12 -9 0 -10 -5 -3 -19 6 -10 7 -21 4 -25 -8 -7 -10 -66 -3 -66 7 0 4 -66 -5
-79 -3 -6 -1 -11 5 -11 6 0 8 -5 5 -11 -10 -15 -12 -79 -3 -79 3 0 3 -13 -2
-30 -5 -16 -6 -30 -2 -30 4 0 7 -16 7 -35 0 -19 -3 -35 -7 -35 -4 0 -3 -11 2
-24 6 -17 5 -26 -2 -28 -8 -3 -8 -10 0 -25 6 -11 8 -23 5 -27 -8 -8 -10 -66
-2 -66 3 0 3 -22 -1 -50 -4 -27 -3 -50 2 -50 5 0 4 -9 -2 -19 -7 -13 -7 -22 0
-26 7 -4 7 -12 0 -25 -6 -11 -6 -21 -1 -25 6 -3 6 -17 1 -35 -5 -19 -5 -30 1
-30 6 0 6 -7 -1 -19 -7 -13 -7 -22 0 -26 7 -4 7 -13 0 -24 -6 -12 -5 -22 2
-29 9 -9 9 -12 0 -12 -9 0 -10 -5 -3 -19 6 -10 7 -21 4 -25 -8 -7 -10 -66 -3
-66 7 0 4 -66 -5 -79 -3 -6 -1 -11 5 -11 6 0 8 -5 5 -11 -10 -15 -12 -79 -3
-79 3 0 3 -13 -2 -30 -5 -16 -6 -30 -2 -30 4 0 7 -16 7 -35 0 -19 -3 -35 -7
-35 -4 0 -3 -11 2 -24 6 -17 5 -26 -2 -28 -8 -3 -8 -10 0 -25 6 -11 8 -23 5
-27 -8 -8 -10 -66 -2 -66 3 0 3 -22 -1 -50 -4 -28 -3 -50 2 -50 5 0 4 -9 -2
-19 -7 -13 -7 -22 0 -26 7 -4 7 -12 0 -25 -6 -11 -6 -21 -1 -25 6 -3 6 -17 1
-35 -5 -19 -5 -30 1 -30 6 0 6 -7 -1 -19 -7 -13 -7 -22 0 -26 7 -4 7 -13 0
-24 -6 -12 -5 -22 2 -29 9 -9 9 -12 0 -12 -9 0 -10 -5 -3 -19 6 -10 7 -21 4
-25 -8 -7 -10 -66 -3 -66 7 0 4 -66 -5 -79 -3 -6 -1 -11 5 -11 6 0 8 -5 5 -11
-10 -15 -12 -79 -3 -79 3 0 3 -13 -2 -30 -5 -16 -6 -30 -2 -30 4 0 7 -16 7
-35 0 -19 -3 -35 -7 -35 -4 0 -3 -11 2 -24 6 -17 5 -26 -2 -28 -8 -3 -8 -10 0
-25 6 -11 8 -23 5 -27 -8 -8 -10 -66 -2 -66 3 0 3 -22 -1 -50 -4 -27 -3 -50 2
-50 5 0 4 -9 -2 -19 -7 -13 -7 -22 0 -26 7 -4 7 -12 0 -25 -6 -11 -6 -21 -1
-25 6 -3 6 -17 1 -35 -5 -19 -5 -30 1 -30 6 0 6 -7 -1 -19 -7 -13 -7 -22 0
-26 7 -4 7 -13 0 -24 -6 -12 -5 -22 2 -29 9 -9 9 -12 0 -12 -9 0 -10 -5 -3
-19 6 -10 7 -21 4 -25 -8 -7 -10 -66 -3 -66 7 0 4 -66 -5 -79 -3 -6 -1 -11 5
-11 6 0 8 -5 5 -11 -10 -15 -12 -79 -3 -79 3 0 3 -13 -2 -30 -5 -16 -6 -30 -2
-30 4 0 7 -16 7 -35 0 -19 -3 -35 -7 -35 -4 0 -3 -11 2 -24 6 -17 5 -26 -2
-28 -8 -3 -8 -10 0 -25 6 -11 8 -23 5 -27 -8 -8 -10 -66 -2 -66 3 0 3 -22 -1
-50 -4 -27 -3 -50 2 -50 5 0 4 -9 -2 -19 -7 -13 -7 -22 0 -26 7 -4 7 -12 0
-25 -6 -11 -6 -21 -1 -25 6 -3 6 -17 1 -35 -5 -19 -5 -30 1 -30 6 0 6 -7 -1
-19 -7 -13 -7 -22 0 -26 7 -4 7 -13 0 -24 -6 -12 -5 -22 1 -28 8 -8 8 -13 0
-17 -14 -9 -2 -36 17 -36 9 0 -13 -21 -49 -47 -35 -26 -69 -52 -75 -58 -6 -5
-22 -17 -34 -25 -12 -8 -32 -23 -43 -33 -12 -10 -37 -31 -56 -45 -121 -97
-333 -300 -460 -441 -36 -41 -73 -82 -81 -91 -8 -8 -43 -51 -78 -95 -34 -44
-71 -90 -82 -101 -11 -12 -20 -27 -20 -33 0 -6 -4 -11 -9 -11 -5 0 -18 -15
-29 -32 -11 -18 -46 -72 -78 -119 -73 -105 -71 -103 -140 -219 -32 -52 -64
-106 -73 -120 -8 -14 -16 -27 -16 -30 -1 -3 -9 -21 -20 -40 -39 -71 -125 -250
-125 -260 0 -6 -4 -10 -8 -10 -5 0 -9 -6 -9 -12 0 -7 -9 -33 -20 -58 -48 -106
-110 -273 -114 -305 0 -5 -4 -14 -9 -20 -7 -9 -35 -100 -31 -100 1 0 -5 -17
-14 -37 -8 -21 -12 -38 -9 -38 4 0 1 -7 -6 -15 -7 -8 -10 -15 -6 -15 3 0 1
-12 -5 -27 -6 -16 -13 -39 -15 -53 -3 -14 -11 -47 -19 -75 -8 -27 -16 -63 -19
-80 -2 -16 -12 -64 -21 -105 -9 -41 -18 -82 -20 -90 -4 -23 -18 -122 -20 -150
-2 -14 -3 -25 -5 -25 -1 0 -3 -13 -5 -30 -2 -16 -6 -52 -9 -80 -10 -87 -19
-247 -20 -332 -1 -46 -4 -83 -7 -83 -3 0 -3 -20 1 -45 4 -25 3 -45 -1 -45 -5
0 -5 -10 0 -22 5 -13 5 -32 1 -43 -4 -11 -5 -24 -2 -29 3 -5 6 -41 8 -81 6
-162 22 -321 50 -497 8 -56 12 -75 40 -213 30 -149 104 -417 126 -459 6 -11
11 -22 10 -23 -1 -2 -1 -5 -1 -8 1 -3 2 -8 3 -12 4 -18 18 -60 26 -78 4 -11
25 -63 45 -115 40 -103 47 -120 94 -223 17 -37 31 -72 31 -77 0 -6 5 -10 10
-10 6 0 10 -5 10 -11 0 -13 65 -143 105 -210 14 -24 28 -52 32 -61 3 -10 9
-18 14 -18 5 0 9 -5 9 -12 0 -14 150 -251 162 -256 4 -2 8 -10 8 -18 0 -8 6
-17 14 -20 8 -3 20 -19 26 -35 7 -16 15 -29 19 -29 4 0 15 -13 24 -30 10 -16
23 -35 30 -42 7 -8 28 -34 47 -58 83 -107 163 -201 228 -268 23 -24 42 -45 42
-46 0 -8 223 -221 304 -291 32 -27 66 -57 75 -65 9 -8 55 -44 101 -80 47 -35
87 -67 90 -71 4 -5 50 -36 109 -74 16 -10 29 -20 55 -42 8 -7 18 -13 22 -13 4
0 21 -11 38 -24 17 -12 47 -31 66 -41 19 -10 37 -21 40 -24 13 -17 421 -237
445 -241 3 0 39 -16 81 -35 42 -19 80 -35 85 -35 7 0 53 -19 119 -50 8 -3 76
-26 150 -51 74 -24 137 -47 138 -52 2 -4 7 -5 12 -2 4 3 27 -2 51 -11 24 -8
60 -17 79 -20 19 -4 44 -11 55 -17 11 -6 21 -10 23 -9 1 1 3 2 5 1 1 0 11 -2
22 -4 11 -1 79 -15 150 -29 72 -15 148 -30 170 -33 66 -8 90 -12 90 -13 0 -6
179 -24 340 -35 151 -11 176 -11 181 -3 3 5 11 5 17 1 13 -8 267 -11 267 -3 0
3 26 5 57 6 59 0 185 10 258 19 22 3 58 7 80 10 22 2 51 7 65 10 14 3 43 7 65
10 22 2 57 9 77 14 20 5 39 7 42 4 2 -3 13 0 23 5 10 5 36 12 58 16 22 3 55
10 73 15 17 5 32 8 32 6 0 -3 11 0 25 5 14 5 36 12 48 14 62 14 217 61 342
105 220 78 240 85 247 96 4 6 8 7 8 3 0 -20 411 186 605 305 61 38 315 207
325 217 3 3 23 18 45 35 22 16 42 31 45 35 3 3 37 30 75 61 73 58 125 103 180
154 114 107 165 158 165 168 0 6 3 8 6 5 4 -5 36 26 109 108 33 36 126 142
142 161 41 49 51 61 93 118 25 33 50 65 56 72 21 22 189 273 217 323 27 50 42
75 54 90 21 27 160 299 203 395 12 28 28 64 36 82 27 60 107 268 107 281 0 6
3 12 7 12 4 0 7 6 7 13 1 6 15 57 33 112 17 55 33 107 35 115 2 8 14 60 28
115 46 182 43 170 51 215 3 19 12 71 20 115 19 103 28 160 32 210 1 22 3 42 5
45 1 3 3 19 4 35 2 17 3 32 4 35 5 13 21 311 22 393 0 33 -2 61 -5 64 -2 3 -1
16 4 29 5 13 6 24 2 24 -4 0 -8 9 -8 20 0 11 4 20 9 20 4 0 5 6 0 13 -4 6 -8
32 -9 57 -2 70 -15 252 -20 285 -2 17 -6 48 -9 70 -7 71 -23 168 -40 255 -15
73 -17 87 -20 105 -1 11 -4 27 -7 35 -3 8 -17 62 -31 120 -14 58 -32 130 -41
160 -9 30 -18 60 -19 65 -1 6 -5 15 -9 20 -3 6 -9 25 -13 44 -6 30 -76 226
-106 296 -7 17 -13 32 -14 35 -5 16 -29 69 -60 135 -19 41 -35 79 -35 84 0 5
-7 14 -15 21 -9 7 -13 15 -11 18 7 6 -116 235 -165 310 -16 24 -29 45 -29 49
0 5 -174 266 -191 287 -5 6 -29 36 -52 67 -23 31 -52 69 -65 86 -32 43 -73 91
-103 124 -14 15 -48 53 -74 84 -42 48 -225 236 -225 231 0 -1 -26 23 -58 53
-70 67 -138 127 -182 161 -18 14 -37 30 -44 35 -6 6 -31 26 -56 45 -25 19 -51
40 -58 47 -7 7 -16 13 -20 13 -4 0 -23 14 -42 30 -19 16 -39 30 -45 31 -5 0
-1 4 9 8 13 5 19 18 20 39 1 18 -1 32 -4 32 -7 0 -4 55 4 68 3 6 2 13 -4 17
-6 4 -8 11 -4 16 9 16 10 79 1 79 -4 0 -3 9 3 19 7 13 7 22 0 26 -7 4 -7 13 0
24 6 12 5 22 -1 28 -8 8 -7 13 0 17 8 5 8 13 1 26 -7 13 -7 21 0 25 7 4 7 12
0 25 -7 13 -7 21 0 25 7 4 7 12 0 25 -7 13 -7 21 0 25 7 4 7 12 0 24 -5 10 -6
21 -3 25 8 8 10 66 2 66 -3 0 -3 23 1 50 4 28 3 50 -2 50 -5 0 -4 9 2 19 7 13
7 22 0 26 -7 4 -7 13 0 24 6 12 5 22 -1 28 -8 8 -7 17 0 32 8 15 9 21 1 21 -6
0 -8 5 -5 11 10 15 12 79 3 79 -3 0 -3 14 2 30 5 17 6 30 2 30 -9 0 -8 53 2
68 3 6 2 13 -4 17 -6 4 -8 11 -4 16 9 16 10 79 1 79 -4 0 -3 9 3 19 7 13 7 22
0 26 -7 4 -7 13 0 24 6 12 5 22 -1 28 -8 8 -7 13 0 17 8 5 8 13 1 26 -7 13 -7
21 0 25 7 4 7 12 0 25 -7 13 -7 21 0 25 7 4 7 12 0 25 -7 13 -7 21 0 25 7 4 7
12 0 24 -5 10 -6 21 -3 25 8 8 10 66 2 66 -3 0 -3 23 1 50 4 28 3 50 -2 50 -5
0 -4 9 2 19 7 13 7 22 0 26 -7 4 -7 13 0 24 6 12 5 22 -1 28 -8 8 -7 17 0 32
8 15 9 21 1 21 -6 0 -8 5 -5 11 10 15 12 79 3 79 -3 0 -3 14 2 30 5 17 6 30 2
30 -9 0 -8 53 2 68 3 6 2 13 -4 17 -6 4 -8 11 -4 16 9 16 10 79 1 79 -4 0 -3
9 3 19 7 13 7 22 0 26 -7 4 -7 13 0 24 6 12 5 22 -1 28 -8 8 -7 13 0 17 8 5 8
13 1 26 -7 13 -7 21 0 25 7 4 7 12 0 25 -7 13 -7 21 0 25 7 4 7 12 0 25 -7 13
-7 21 0 25 7 4 7 12 0 24 -5 10 -6 21 -3 25 8 8 10 66 2 66 -4 0 -3 15 1 34 4
18 3 40 -1 49 -6 10 -5 18 1 22 7 4 7 12 0 25 -7 13 -7 21 0 25 7 4 7 12 0 25
-7 13 -7 21 0 25 7 4 7 12 0 24 -5 10 -6 21 -3 25 8 8 10 66 2 66 -3 0 -3 23
1 50 4 28 3 50 -2 50 -5 0 -4 9 2 19 7 13 7 22 0 26 -7 4 -7 13 0 24 6 12 5
22 -1 28 -8 8 -7 17 0 32 8 15 9 21 1 21 -6 0 -8 5 -5 11 10 15 12 79 3 79 -3
0 -3 14 2 30 5 17 6 30 2 30 -9 0 -8 53 2 68 3 6 2 13 -4 17 -6 4 -8 11 -4 16
9 16 10 79 1 79 -4 0 -3 9 3 19 7 13 7 22 0 26 -7 4 -7 13 0 24 6 12 5 22 -1
28 -8 8 -7 13 0 17 8 5 8 13 1 26 -7 13 -7 21 0 25 7 4 7 12 0 25 -7 13 -7 21
0 25 7 4 7 12 0 25 -7 13 -7 21 0 25 7 4 7 12 0 24 -5 10 -6 21 -3 25 8 8 10
66 2 66 -3 0 -3 23 1 50 4 28 3 50 -2 50 -5 0 -4 9 2 19 7 13 7 22 0 26 -7 4
-7 13 0 24 6 12 5 22 -1 28 -8 8 -7 17 0 32 8 15 9 21 1 21 -6 0 -8 5 -5 11
10 15 12 79 3 79 -3 0 -3 14 2 30 5 17 6 30 2 30 -9 0 -8 53 2 68 3 6 2 13 -4
17 -6 4 -8 11 -4 16 9 16 10 79 1 79 -4 0 -3 9 3 19 7 13 7 22 0 26 -7 4 -7
13 0 24 6 12 5 22 -1 28 -8 8 -7 13 0 17 8 5 8 13 1 26 -7 13 -7 21 0 25 7 4
7 12 0 25 -7 13 -7 21 0 25 7 4 7 12 0 25 -7 13 -7 21 0 25 7 4 7 12 0 24 -5
10 -6 21 -3 25 8 8 10 66 2 66 -3 0 -3 23 1 50 4 28 3 50 -2 50 -5 0 -4 9 2
19 7 13 7 22 0 26 -7 4 -7 13 0 24 6 12 5 22 -1 28 -8 8 -7 17 0 32 8 15 9 21
1 21 -6 0 -8 5 -5 11 10 15 12 79 3 79 -3 0 -3 14 2 30 5 17 6 30 2 30 -9 0
-8 53 2 68 3 6 2 13 -4 17 -6 4 -8 11 -4 16 9 16 10 79 1 79 -4 0 -3 9 3 19 7
13 7 22 0 26 -7 4 -7 13 0 24 6 12 5 22 -1 28 -8 8 -7 13 0 17 8 5 8 13 1 26
-7 13 -7 21 0 25 7 4 7 12 0 25 -7 13 -7 21 0 25 7 4 7 12 0 25 -7 13 -7 21 0
25 7 4 7 12 0 24 -5 10 -6 21 -3 25 8 8 10 66 2 66 -3 0 -3 23 1 50 4 28 3 50
-2 50 -5 0 -4 9 2 19 7 13 7 22 0 26 -7 4 -7 13 0 24 6 12 5 22 -1 28 -8 8 -7
17 0 32 8 15 9 21 1 21 -6 0 -8 5 -5 11 10 15 12 79 3 79 -3 0 -3 14 2 30 5
17 6 30 2 30 -9 0 -8 53 2 68 3 6 2 13 -4 17 -6 4 -8 11 -4 16 9 16 10 79 1
79 -4 0 -3 9 3 19 7 13 7 22 0 26 -7 4 -7 13 0 24 6 12 5 22 -1 28 -8 8 -7 13
0 17 8 5 8 13 1 26 -7 13 -7 21 0 25 7 4 7 12 0 25 -7 13 -7 21 0 25 7 4 7 12
0 25 -7 13 -7 21 0 25 7 4 7 12 0 24 -5 10 -6 21 -3 25 8 8 10 66 2 66 -3 0
-3 23 1 50 4 28 3 50 -2 50 -5 0 -4 9 2 19 7 13 7 22 0 26 -7 4 -7 13 0 24 6
12 5 22 -1 28 -8 8 -7 17 0 32 8 15 9 21 1 21 -6 0 -8 5 -5 11 10 15 12 79 3
79 -3 0 -3 14 2 30 5 17 6 30 2 30 -9 0 -8 53 2 68 3 6 2 13 -4 17 -6 4 -8 11
-4 16 9 16 10 79 1 79 -4 0 -3 9 3 19 7 13 7 22 0 26 -7 4 -7 13 0 24 6 12 5
22 -1 28 -8 8 -7 13 0 17 8 5 8 13 1 26 -7 13 -7 21 0 25 7 4 7 12 0 25 -7 13
-7 21 0 25 7 4 7 12 0 25 -7 13 -7 21 0 25 7 4 7 12 0 24 -5 10 -6 21 -3 25 8
8 10 66 2 66 -4 0 -3 15 1 34 4 18 3 40 -1 49 -6 10 -5 18 1 22 7 4 7 12 0 25
-7 13 -7 21 0 25 7 4 7 12 0 25 -7 13 -7 21 0 25 7 4 7 12 0 24 -5 10 -6 21
-3 25 8 8 10 66 2 66 -3 0 -3 23 1 50 4 28 3 50 -2 50 -5 0 -4 9 2 19 7 13 7
22 0 26 -7 4 -7 13 0 24 6 12 5 22 -1 28 -8 8 -7 17 0 32 8 15 9 21 1 21 -6 0
-8 5 -5 11 10 15 12 79 3 79 -3 0 -3 14 2 30 5 17 6 30 2 30 -9 0 -8 53 2 68
3 6 2 13 -4 17 -6 4 -8 11 -4 16 9 16 10 79 1 79 -4 0 -3 9 3 19 7 13 7 22 0
26 -7 4 -7 13 0 24 6 12 5 22 -1 28 -8 8 -7 13 0 17 8 5 8 13 1 26 -7 13 -7
21 0 25 7 4 7 12 0 25 -7 13 -7 21 0 25 7 4 7 12 0 25 -7 13 -7 21 0 25 7 4 7
12 0 24 -5 10 -6 21 -3 25 8 8 10 66 2 66 -3 0 -3 23 1 50 4 28 3 50 -2 50 -5
0 -4 9 2 19 7 13 7 22 0 26 -7 4 -7 13 0 24 6 12 5 22 -1 28 -8 8 -7 17 0 32
8 15 9 21 1 21 -6 0 -8 5 -5 11 10 15 12 79 3 79 -3 0 -3 14 2 30 5 17 6 30 2
30 -9 0 -8 53 2 68 3 6 2 13 -4 17 -6 4 -8 11 -4 16 9 16 10 79 1 79 -4 0 -3
9 3 19 7 13 7 22 0 26 -7 4 -7 13 0 24 6 12 5 22 -1 28 -8 8 -7 13 0 17 8 5 8
13 1 26 -7 13 -7 21 0 25 7 4 7 12 0 25 -7 13 -7 21 0 25 7 4 7 12 0 25 -7 13
-7 21 0 25 7 4 7 12 0 24 -5 10 -6 21 -3 25 8 8 10 66 2 66 -3 0 -3 23 1 50 4
28 3 50 -2 50 -5 0 -4 9 2 19 7 13 7 22 0 26 -7 4 -7 13 0 24 6 12 5 22 -1 28
-8 8 -7 17 0 32 8 15 9 21 1 21 -6 0 -8 5 -5 11 10 15 12 79 3 79 -3 0 -3 14
2 30 5 17 6 30 2 30 -9 0 -8 53 2 68 3 6 2 13 -4 17 -6 4 -8 11 -4 16 9 16 10
79 1 79 -4 0 -3 9 3 19 7 13 7 22 0 26 -7 4 -7 13 0 24 6 12 5 22 -1 28 -8 8
-7 13 0 17 8 5 8 13 1 26 -7 13 -7 21 0 25 7 4 7 12 0 25 -7 13 -7 21 0 25 7
4 7 12 0 25 -7 13 -7 21 0 25 7 4 7 12 0 24 -5 10 -6 21 -3 25 8 8 10 66 2 66
-3 0 -3 23 1 50 4 28 3 50 -2 50 -5 0 -4 9 2 19 7 13 7 22 0 26 -7 4 -7 13 0
24 6 12 5 22 -1 28 -8 8 -7 17 0 32 8 15 9 21 1 21 -6 0 -8 5 -5 11 10 15 12
79 3 79 -3 0 -3 14 2 30 5 17 6 30 2 30 -9 0 -8 53 2 68 3 6 2 13 -4 17 -6 4
-8 11 -4 16 9 16 10 79 1 79 -4 0 -3 9 3 19 7 13 7 22 0 26 -7 4 -7 13 0 24 6
12 5 22 -1 28 -8 8 -7 13 0 17 8 5 8 13 1 26 -7 13 -7 21 0 25 7 4 7 12 0 25
-7 13 -7 21 0 25 7 4 7 12 0 25 -7 13 -7 21 0 25 7 4 7 12 0 24 -5 10 -6 21
-3 25 8 8 10 66 2 66 -3 0 -3 23 1 50 4 28 3 50 -2 50 -5 0 -4 9 2 19 7 13 7
22 0 26 -7 4 -7 13 0 24 6 12 5 22 -1 28 -8 8 -7 17 0 32 8 15 9 21 1 21 -6 0
-8 5 -5 11 10 15 12 79 3 79 -3 0 -3 14 2 30 5 17 6 30 2 30 -9 0 -8 53 2 68
3 6 2 13 -4 17 -6 4 -8 11 -4 16 9 16 10 79 1 79 -4 0 -3 9 3 19 7 13 7 22 0
26 -7 4 -7 13 0 24 6 12 5 22 -1 28 -8 8 -7 13 0 17 8 5 8 13 1 26 -7 13 -7
21 0 25 7 4 7 12 0 25 -7 13 -7 21 0 25 7 4 7 12 0 25 -7 13 -7 21 0 25 7 4 7
12 0 24 -5 10 -6 21 -3 25 8 8 10 66 2 66 -4 0 -3 15 1 34 4 18 3 40 -1 49 -6
10 -5 18 1 22 7 4 7 12 0 25 -7 13 -7 21 0 25 7 4 7 12 0 25 -7 13 -7 21 0 25
7 4 7 12 0 24 -5 10 -6 21 -3 25 8 8 10 66 2 66 -3 0 -3 23 1 50 4 28 3 50 -2
50 -5 0 -4 9 2 19 7 13 7 22 0 26 -7 4 -7 13 0 24 6 12 5 22 -1 28 -8 8 -7 17
0 32 8 15 9 21 1 21 -6 0 -8 5 -5 11 10 15 12 79 3 79 -3 0 -3 14 2 30 5 17 6
30 2 30 -9 0 -8 53 2 68 3 6 2 13 -4 17 -6 4 -8 11 -4 16 9 16 10 79 1 79 -4
0 -3 9 3 19 7 13 7 22 0 26 -7 4 -7 13 0 24 6 12 5 22 -1 28 -8 8 -7 13 0 17
8 5 8 13 1 26 -7 13 -7 21 0 25 7 4 7 12 0 25 -7 13 -7 21 0 25 7 4 7 12 0 25
-7 13 -7 21 0 25 7 4 7 12 0 24 -5 10 -6 21 -3 25 8 8 10 66 2 66 -3 0 -3 23
1 50 4 28 3 50 -2 50 -5 0 -4 9 2 19 7 13 7 22 0 26 -7 4 -7 13 0 24 6 12 5
22 -1 28 -8 8 -7 17 0 32 8 15 9 21 1 21 -6 0 -8 5 -5 11 10 15 12 79 3 79 -3
0 -3 14 2 30 5 17 6 30 2 30 -9 0 -8 53 2 68 3 6 2 13 -4 17 -6 4 -8 11 -4 16
9 16 10 79 1 79 -4 0 -3 9 3 19 7 13 7 22 0 26 -7 4 -7 13 0 24 6 12 5 22 -1
28 -8 8 -7 13 0 17 8 5 8 13 1 26 -7 13 -7 21 0 25 7 4 7 12 0 25 -7 13 -7 21
0 25 7 4 7 12 0 25 -7 13 -7 21 0 25 7 4 7 12 0 24 -5 10 -6 21 -3 25 8 8 10
66 2 66 -3 0 -3 23 1 50 4 28 3 50 -2 50 -5 0 -4 9 2 19 7 13 7 22 0 26 -7 4
-7 13 0 24 6 12 5 22 -1 28 -8 8 -7 17 0 32 8 15 9 21 1 21 -6 0 -8 5 -5 11
10 15 12 79 3 79 -3 0 -3 14 2 30 5 17 6 30 2 30 -9 0 -8 53 2 68 3 6 2 13 -4
17 -6 4 -8 11 -4 16 9 16 10 79 1 79 -4 0 -3 9 3 19 7 13 7 22 0 26 -7 4 -7
13 0 24 6 12 5 22 -1 28 -8 8 -7 13 0 17 8 5 8 13 1 26 -7 13 -7 21 0 25 7 4
7 12 0 25 -7 13 -7 21 0 25 7 4 7 12 0 25 -7 13 -7 21 0 25 7 4 7 12 0 24 -5
10 -6 21 -3 25 8 8 10 66 2 66 -3 0 -3 23 1 50 4 28 3 50 -2 50 -5 0 -4 9 2
19 7 13 7 22 0 26 -7 4 -7 13 0 24 6 12 5 22 -1 28 -8 8 -7 17 0 32 8 15 9 21
1 21 -6 0 -8 5 -5 11 10 15 12 79 3 79 -3 0 -3 14 2 30 5 17 6 30 2 30 -9 0
-8 53 2 68 3 6 2 13 -4 17 -6 4 -7 13 -1 23 6 11 5 28 -3 47 -8 19 -10 41 -5
59 11 37 4 162 -10 201 -25 66 -48 103 -102 157 -31 31 -59 54 -63 51 -3 -4
-6 -1 -6 5 0 7 -7 12 -15 12 -8 0 -15 4 -15 9 0 5 -15 18 -32 30 -76 48 -113
75 -116 83 -2 4 -8 8 -13 8 -5 0 -41 22 -81 48 -94 62 -251 157 -261 157 -4 0
-11 6 -16 13 -5 8 -12 14 -17 14 -11 1 -57 21 -64 28 -10 10 -285 144 -320
155 -3 1 -16 6 -30 12 -122 52 -380 144 -380 136 0 -3 -6 -1 -12 5 -7 5 -26
13 -43 16 -16 3 -64 15 -105 26 -41 12 -84 23 -95 25 -11 2 -54 10 -95 18
-125 25 -143 29 -185 32 -22 2 -53 6 -70 9 -43 8 -149 17 -228 20 -37 2 -70 5
-73 8 -3 3 -17 3 -32 -1 -15 -4 -41 -4 -59 0 -18 3 -34 5 -36 3z m18 -804 c12
5 25 6 28 4 3 -3 51 -7 108 -10 117 -4 168 -9 219 -18 19 -4 49 -8 65 -10 17
-2 37 -6 45 -8 8 -3 44 -11 80 -17 36 -7 106 -24 155 -38 50 -14 97 -26 105
-28 24 -5 184 -64 202 -75 10 -5 22 -10 27 -10 16 0 309 -137 321 -150 3 -3
23 -14 45 -25 58 -30 147 -79 160 -88 5 -4 51 -34 101 -66 51 -33 95 -64 98
-70 4 -5 6 -30 6 -53 0 -24 0 -52 -1 -63 0 -11 0 -47 0 -80 -1 -33 -1 -69 0
-80 0 -11 0 -40 1 -65 0 -25 -1 -56 -3 -70 -1 -14 0 -40 4 -57 4 -20 3 -33 -3
-33 -7 0 -6 -5 1 -13 6 -8 8 -16 5 -19 -7 -8 -7 -194 0 -207 4 -6 3 -11 -2
-11 -6 0 -7 -14 -2 -35 5 -22 4 -35 -2 -35 -7 0 -6 -5 1 -13 6 -8 8 -16 5 -19
-3 -3 -4 -50 -4 -104 1 -98 0 -150 -4 -189 -1 -11 1 -35 5 -53 4 -17 3 -34 -1
-37 -4 -3 -4 -22 0 -42 5 -20 6 -41 4 -45 -3 -5 -5 -34 -5 -66 0 -31 0 -79 0
-107 0 -27 0 -57 0 -65 0 -8 0 -42 0 -75 -1 -33 -1 -69 0 -80 1 -103 1 -167 0
-260 0 -27 0 -57 0 -65 0 -8 0 -42 0 -75 -1 -33 -1 -69 0 -80 0 -11 0 -40 1
-65 0 -25 -1 -56 -3 -70 -1 -14 0 -40 4 -57 4 -20 3 -33 -3 -33 -7 0 -6 -5 1
-13 6 -8 8 -16 5 -19 -7 -8 -7 -194 0 -207 4 -6 3 -11 -2 -11 -6 0 -7 -14 -2
-35 5 -22 4 -35 -2 -35 -7 0 -6 -5 1 -13 6 -8 8 -16 5 -19 -3 -3 -4 -50 -4
-104 1 -98 0 -150 -4 -189 -1 -11 1 -35 5 -53 4 -17 3 -34 -1 -37 -4 -3 -4
-22 0 -42 5 -20 6 -41 4 -45 -3 -5 -5 -34 -5 -66 0 -31 0 -79 0 -107 0 -27 0
-57 0 -65 0 -8 0 -42 0 -75 -1 -33 -1 -69 0 -80 1 -103 1 -167 0 -260 0 -27 0
-57 0 -65 0 -8 0 -42 0 -75 -1 -33 -1 -69 0 -80 0 -11 0 -40 1 -65 0 -25 -1
-56 -3 -70 -1 -14 0 -40 4 -57 4 -20 3 -33 -3 -33 -7 0 -6 -5 1 -13 6 -8 8
-16 5 -19 -7 -8 -7 -194 0 -207 4 -6 3 -11 -2 -11 -6 0 -7 -14 -2 -35 5 -22 4
-35 -2 -35 -7 0 -6 -5 1 -13 6 -8 8 -16 5 -19 -3 -3 -4 -50 -4 -104 1 -98 0
-150 -4 -189 -1 -11 1 -35 5 -53 4 -17 3 -34 -1 -37 -4 -3 -4 -22 0 -42 5 -20
6 -41 4 -45 -3 -5 -5 -34 -5 -66 0 -31 0 -79 0 -107 0 -27 0 -57 0 -65 0 -8 0
-42 0 -75 -1 -33 -1 -69 0 -80 1 -103 1 -167 0 -260 0 -27 0 -57 0 -65 0 -8 0
-42 0 -75 -1 -33 -1 -69 0 -80 0 -11 0 -40 1 -65 0 -25 -1 -56 -3 -70 -1 -14
0 -40 4 -57 4 -20 3 -33 -3 -33 -7 0 -6 -5 1 -13 6 -8 8 -16 5 -19 -7 -8 -7
-194 0 -207 4 -6 3 -11 -2 -11 -6 0 -7 -14 -2 -35 5 -22 4 -35 -2 -35 -7 0 -6
-5 1 -13 6 -8 8 -16 5 -19 -3 -3 -4 -50 -4 -104 1 -98 0 -150 -4 -189 -1 -11
1 -35 5 -53 4 -17 3 -34 -1 -37 -4 -3 -4 -22 0 -42 5 -20 6 -41 3 -46 -3 -5
-5 -39 -4 -75 3 -104 3 -105 -8 -111 -14 -9 -3494 -7 -3508 2 -8 5 -9 16 -4
30 4 12 4 36 1 52 -3 17 -3 39 0 50 4 11 4 30 1 43 -3 13 -4 59 -1 103 3 45 2
83 -1 85 -4 2 -3 21 0 41 4 21 4 53 0 71 -3 17 -2 32 3 32 5 0 4 8 -1 19 -6
10 -8 20 -6 23 4 4 6 60 4 108 0 8 0 35 0 60 0 25 0 53 0 63 0 25 0 104 0 125
2 123 2 153 -3 161 -4 5 -2 12 3 15 5 4 6 18 2 33 -4 14 -4 48 -1 75 4 26 3
53 -1 59 -3 6 -3 25 0 43 4 17 4 45 1 61 -3 17 -3 47 1 68 3 21 2 37 -3 37 -5
0 -6 5 -2 11 3 6 6 43 5 83 -3 87 -3 90 -1 146 1 67 2 163 1 178 -1 6 -1 18
-2 25 -1 6 0 26 0 42 1 17 1 54 1 83 -1 28 2 57 5 62 3 6 1 10 -5 10 -6 0 -8
5 -4 11 3 6 6 43 5 83 -1 39 -2 80 -2 91 0 11 0 65 0 120 0 55 0 108 0 118 0
33 0 137 0 167 0 62 0 121 1 200 1 60 1 140 1 168 -2 88 1 167 5 173 2 4 0 10
-5 13 -4 3 -5 23 -2 43 4 21 4 53 0 71 -3 17 -2 32 3 32 5 0 4 8 -1 19 -6 10
-8 20 -6 23 4 4 6 60 4 108 0 8 0 35 0 60 0 25 0 53 0 63 0 44 0 110 1 187 1
60 1 140 1 168 -2 88 1 167 5 173 2 4 0 10 -5 13 -4 3 -5 23 -2 43 4 21 4 53
0 71 -3 17 -2 32 3 32 5 0 4 8 -1 19 -6 10 -8 20 -6 23 4 4 6 60 4 108 0 8 0
35 0 60 0 25 0 53 0 63 0 25 0 104 0 125 2 123 2 153 -3 161 -4 5 -2 12 3 15
5 4 6 18 2 33 -4 14 -4 48 -1 75 4 26 3 53 -1 59 -3 6 -3 25 0 43 4 17 4 45 1
61 -3 17 -3 47 1 68 3 21 2 37 -3 37 -5 0 -6 5 -2 11 3 6 6 43 5 83 -3 87 -3
90 -1 146 1 67 2 163 1 178 -1 6 -1 18 -2 25 -1 6 0 26 0 42 1 17 1 54 1 83
-1 28 2 57 5 62 3 6 1 10 -5 10 -6 0 -8 5 -4 11 3 6 6 43 5 83 -1 39 -2 80 -2
91 0 11 0 65 0 120 0 55 0 108 0 118 0 33 0 137 0 167 0 62 0 121 1 200 1 60
1 140 1 168 -2 88 1 167 5 173 2 4 0 10 -6 14 -6 4 -8 11 -5 16 4 5 6 44 6 87
0 42 3 82 7 87 10 15 150 105 162 105 5 0 10 4 10 9 0 5 10 13 23 17 12 4 40
19 62 34 72 49 432 227 479 236 10 2 24 8 32 15 8 6 14 8 14 5 0 -4 10 -1 23
6 12 6 27 13 33 14 7 1 38 11 70 22 82 29 266 79 344 93 72 13 82 14 155 23
28 4 57 8 65 11 8 2 64 7 124 9 60 3 112 8 115 11 3 4 7 2 9 -4 2 -6 12 -7 27
-1z"/>
</g>
</svg>
